<svg width="40" height="40" viewBox="0 0 40 40" fill="none" xmlns="http://www.w3.org/2000/svg">
<path d="M34.5044 0C31.4743 0 29.0092 2.59946 29.0092 5.79478C29.0092 6.21975 29.054 6.63393 29.1367 7.0332L22.0842 10.7521C21.0757 9.52238 19.5871 8.74171 17.9278 8.74171C14.8976 8.74171 12.4325 11.3412 12.4325 14.5365C12.4325 17.7318 14.8976 20.3313 17.9278 20.3313C18.3584 20.3313 18.7771 20.2771 19.1794 20.1779L22.5547 25.5179C21.43 26.5797 20.7207 28.121 20.7207 29.8344C20.7207 30.1634 20.7483 30.4857 20.7984 30.7998L10.7648 32.5634C10.0917 30.1655 7.98492 28.4104 5.49549 28.4104C2.46532 28.4104 0 31.0098 0 34.2049C0 37.4005 2.46532 40 5.49549 40C8.12593 40 10.3296 38.0405 10.8655 35.4333L21.9518 33.4845C22.9601 34.7918 24.4968 35.629 26.2159 35.629C29.2463 35.629 31.7118 33.0295 31.7118 29.8344C31.7118 26.6392 29.2463 24.0397 26.2159 24.0397C25.7853 24.0397 25.3667 24.0941 24.9646 24.1932L21.5892 18.853C22.7139 17.7912 23.4232 16.2498 23.4232 14.5365C23.4232 14.1115 23.3783 13.6975 23.2956 13.2984L30.3483 9.57929C31.3566 10.8092 32.8453 11.5899 34.5044 11.5899C37.5347 11.5899 40 8.99025 40 5.79478C40 2.59946 37.5347 0 34.5044 0ZM5.49549 37.1519C3.95542 37.1519 2.70263 35.83 2.70263 34.2049C2.70263 32.5803 3.95556 31.2584 5.49549 31.2584C7.03542 31.2584 8.28822 32.5803 8.28822 34.2049C8.28822 35.8298 7.03542 37.1519 5.49549 37.1519ZM29.0093 29.8344C29.0093 31.4591 27.7562 32.7809 26.216 32.7809C24.676 32.7809 23.4233 31.4593 23.4233 29.8344C23.4233 28.2097 24.6761 26.8879 26.216 26.8879C27.7562 26.8879 29.0093 28.2097 29.0093 29.8344ZM15.1351 14.5365C15.1351 12.9117 16.3879 11.5899 17.9278 11.5899C19.4677 11.5899 20.7205 12.9117 20.7205 14.5365C20.7205 16.1613 19.4677 17.4831 17.9278 17.4831C16.3879 17.4831 15.1351 16.1613 15.1351 14.5365ZM34.5044 8.74171C32.9644 8.74171 31.7118 7.4197 31.7118 5.79478C31.7118 4.17001 32.9646 2.84814 34.5044 2.84814C36.0446 2.84814 37.2974 4.16987 37.2974 5.79478C37.2975 7.41956 36.0446 8.74171 34.5044 8.74171Z" fill="url(#paint0_linear)"/>
<defs>
<linearGradient id="paint0_linear" x1="20" y1="0" x2="20" y2="40" gradientUnits="userSpaceOnUse">
<stop stop-color="#2DC9EC"/>
<stop offset="1" stop-color="#C09421"/>
</linearGradient>
</defs>
</svg>
