<svg width="23" height="25" viewBox="0 0 23 25" fill="none" xmlns="http://www.w3.org/2000/svg">
<path d="M22.9184 23.5284L20.2642 8.72026C20.1574 8.12411 19.6387 7.69015 19.0329 7.69015H14.6187C15.4464 6.87494 15.9607 5.74243 15.9607 4.49168C15.9607 2.01493 13.9458 0 11.469 0C8.99229 0 6.97728 2.01493 6.97728 4.49168C6.97728 5.74243 7.49162 6.87494 8.31926 7.69015H3.90505C3.29931 7.69015 2.78072 8.12411 2.67381 8.72026L0.0196161 23.5284C-0.0456777 23.893 0.0538056 24.2678 0.291548 24.5518C0.529207 24.8358 0.880526 24.9999 1.25086 24.9999H21.6871C22.0575 24.9999 22.4088 24.8358 22.6464 24.5518C22.8841 24.2678 22.9837 23.893 22.9184 23.5284ZM11.469 2.50168C12.5664 2.50168 13.459 3.39436 13.459 4.49168C13.459 5.58899 12.5664 6.48176 11.469 6.48176C10.3717 6.48176 9.47895 5.58899 9.47895 4.49168C9.47895 3.39436 10.3717 2.50168 11.469 2.50168ZM11.1421 19.3568C11.077 19.4769 10.9513 19.5517 10.8147 19.5517H10.2246C10.0924 19.5517 9.96995 19.4816 9.90307 19.3674L8.44276 16.8745L7.50888 17.8278V18.9758C7.50888 19.2938 7.25104 19.5517 6.933 19.5517C6.61495 19.5517 6.35711 19.2938 6.35711 18.9758V14.423C6.35711 14.1049 6.61495 13.8471 6.933 13.8471C7.25104 13.8471 7.50888 14.1049 7.50888 14.423V16.3802L9.72528 13.9676C9.79583 13.8908 9.8954 13.8471 9.99964 13.8471H10.5061C10.6557 13.8471 10.7907 13.9365 10.8491 14.0742C10.9075 14.2119 10.8779 14.3711 10.774 14.4786L9.23662 16.0688L11.1271 18.9759C11.2015 19.0905 11.2074 19.2366 11.1421 19.3568ZM16.8162 18.5971C16.8162 18.7104 16.7645 18.8179 16.676 18.8886C16.4462 19.0719 16.1434 19.2366 15.7677 19.3823C15.3097 19.56 14.846 19.6488 14.3765 19.6488C13.7797 19.6488 13.2598 19.5237 12.816 19.2733C12.3726 19.0231 12.0391 18.6651 11.816 18.1994C11.5929 17.7337 11.4814 17.2273 11.4814 16.6798C11.4814 16.0859 11.6059 15.5578 11.855 15.0962C12.104 14.6344 12.4685 14.2804 12.9484 14.0338C13.314 13.8445 13.7694 13.7497 14.3142 13.7497C15.0224 13.7497 15.5755 13.8983 15.9738 14.1953C16.1463 14.324 16.2922 14.474 16.4113 14.6453C16.5253 14.809 16.5484 15.0192 16.4728 15.2037C16.3973 15.3882 16.2334 15.5221 16.0373 15.5588L16.036 15.559C15.8064 15.602 15.5735 15.5002 15.4492 15.3024C15.3696 15.1758 15.2682 15.0675 15.145 14.9774C14.9231 14.8153 14.6462 14.7342 14.3142 14.7342C13.8109 14.7342 13.4107 14.8938 13.1138 15.2128C12.8168 15.532 12.6683 16.0054 12.6683 16.6331C12.6683 17.3103 12.8186 17.818 13.1196 18.1566C13.4205 18.4951 13.8148 18.6643 14.3026 18.6643C14.5438 18.6643 14.7857 18.6171 15.0283 18.5223C15.2707 18.4276 15.4789 18.3128 15.6528 18.178V17.4541H14.8143C14.5488 17.4541 14.3338 17.239 14.3338 16.9736C14.3338 16.7082 14.5489 16.4931 14.8143 16.4931H16.4436C16.6494 16.4931 16.8162 16.66 16.8162 16.8657V18.5971Z" fill="black"/>
</svg>
